# xmcd
#
# Track frame offsets:
#	150
#	20967
#	33144
#	45594
#	60170
#	80215
#	99809
#	111912
#	132127
#	147579
#	163826
#	181465
#
# Disc length: 2568 seconds
#
# Revision: 5
# Processed by: cddbd v1.4PL0 Copyright (c) Steve Scherf et al.
# Submitted via: CDmax 2.0
#
DISCID=a00a060c
DTITLE=Leon Russell - Guitar Blues
DYEAR=2001
DGENRE=Blues
TTITLE0=Ways of a Woman
TTITLE1=House of Blues
TTITLE2=Rip Van Winkle
TTITLE3=This Love I Have For You
TTITLE4=Lost Inside the Blues
TTITLE5=Dark Carousel
TTITLE6=It's Impossible
TTITLE7=My Hard Times
TTITLE8=Strange Power of Love
TTITLE9=Make Everything Alright
TTITLE10=The Same Old Song
TTITLE11=End of the Road
EXTD=LABEL =Leon Russell Records - Young Carney Music\nID =none\nUPC =67943
EXTD=3-001023\nCOPYRIGHT =1995, 2001
EXTT0=
EXTT1=
EXTT2=
EXTT3=
EXTT4=
EXTT5=
EXTT6=
EXTT7=
EXTT8=
EXTT9=
EXTT10=
EXTT11=
PLAYORDER=
